<?xml version="1.0" encoding="UTF-8"?>
<!--
  CarRacerJS
  Copyright (C) Simon Raichl 2018
  MIT License
-->
<!-- Created with Inkscape (http://www.inkscape.org/) -->
<svg width="128" height="258" version="1.1" viewBox="0 0 33.867 68.263" xmlns="http://www.w3.org/2000/svg" xmlns:cc="http://creativecommons.org/ns#" xmlns:dc="http://purl.org/dc/elements/1.1/" xmlns:rdf="http://www.w3.org/1999/02/22-rdf-syntax-ns#">
 <defs>
  <filter id="filter1098" x="-5.7783" y="-.1308" width="12.557" height="1.2616" color-interpolation-filters="sRGB">
   <feGaussianBlur stdDeviation="3.8676315"/>
  </filter>
 </defs>
 <metadata>
  <rdf:RDF>
   <cc:Work rdf:about="">
    <dc:format>image/svg+xml</dc:format>
    <dc:type rdf:resource="http://purl.org/dc/dcmitype/StillImage"/>
    <dc:title/>
   </cc:Work>
  </rdf:RDF>
 </metadata>
 <g transform="translate(0 -228.74)">
  <g transform="matrix(.91455 0 0 .91455 -68.151 139.14)">
   <path d="m78.466 158.42c0.02227-5.2119 0.06682-15.635-0.17706-25.002s-0.77619-17.676-0.15244-22.977c0.62375-5.3009 2.4033-7.5934 3.8722-8.9622 1.4689-1.3689 2.6271-1.8143 5.8147-2.0055 3.1876-0.19117 8.4075-0.12816 11.41 0.07074 3.0024 0.1989 3.7889 0.53363 5.0557 1.8118s3.0138 3.4998 3.669 8.8555c0.65516 5.3557 0.21836 13.844-5e-3 23.494-0.22342 9.6497-0.23332 20.455-0.86215 26.789-0.62882 6.3337-1.8306 8.1255-4.2921 9.3842-2.4614 1.2587-6.1578 1.949-10 1.8377s-7.8288-1.0244-10.246-2.5057c-2.4167-1.4813-3.263-3.5302-3.6862-4.5547s-0.4231-1.0245-0.40083-6.2364z" fill="#0a5800"/>
   <g stroke="#003600" stroke-linecap="round">
    <path d="m100.4 109.87c1.3738 2.1305 2.7476 4.2611 3.3869 6.6651s0.54393 5.0817 0.44855 7.7596" fill="none" stroke-width=".73499"/>
    <path d="m85.549 110.17c-1.1528 2.1363-2.3058 4.2727-2.8227 6.6792-0.51695 2.4065-0.39785 5.0832-0.27874 7.7601" fill="none" stroke-width=".68181"/>
    <path d="m104.99 166.81a2.0444 1.5744 0 0 1-1.4522 1.9084 2.0444 1.5744 0 0 1-2.4968-1.0932 2.0444 1.5744 0 0 1 1.3867-1.937 2.0444 1.5744 0 0 1 2.5332 1.0424" fill="#f00" stroke-linejoin="round" stroke-width=".28135" style="paint-order:stroke markers fill"/>
    <path d="m85.687 167.24a2.0444 1.5744 0 0 1-1.4522 1.9084 2.0444 1.5744 0 0 1-2.4969-1.0932 2.0444 1.5744 0 0 1 1.3867-1.937 2.0444 1.5744 0 0 1 2.5332 1.0424" fill="#f00" stroke-linejoin="round" stroke-width=".28135" style="paint-order:stroke markers fill"/>
   </g>
   <g fill="none" stroke="#003600" stroke-linecap="round">
    <path d="m102.58 141.79c0.13043 1.2041 0.26089 2.4084 0.31624 3.8428 0.0553 1.4344 0.0355 3.0987 0.0157 4.7632" stroke-width=".58327"/>
    <path d="m83.201 142.05c-0.15837 1.196-0.31677 2.3923-0.38396 3.817-0.0672 1.4248-0.04316 3.078-0.01911 4.7313" stroke-width=".64054"/>
    <path d="m103.29 156.02c0.36533 1.08 0.73079 2.1604 1.1185 3.4976s0.79761 2.9312 1.2076 4.5253" stroke-width=".44404"/>
    <path d="m82.161 156.22c-0.42436 1.0755-0.84886 2.1513-1.2992 3.4829-0.45034 1.3316-0.92646 2.9188-1.4026 4.5062" stroke-width=".47756"/>
   </g>
   <g>
    <path d="m80.958 104.58c0.4339 0.15325 1.411 0.40059 2.1438-0.33555 0.73273-0.73614 1.2214-2.4562 1.3723-3.2158 0.15087-0.75965-0.03629-0.55938-0.48914-0.17013-0.45285 0.38925-1.1687 0.96525-1.7536 1.5719s-1.0368 1.2423-1.3175 1.5899c-0.28063 0.34756-0.38972 0.40642 0.04417 0.55967z" fill="#ff3"/>
    <path d="m105.02 104.44c-0.3852 0.15326-1.2527 0.40059-1.9032-0.33554-0.65054-0.73613-1.0844-2.4561-1.2184-3.2158-0.13394-0.75966 0.0322-0.55939 0.43426-0.17014 0.40204 0.38924 1.0376 0.96524 1.5569 1.5719s0.9205 1.2423 1.1696 1.5899 0.34598 0.4064-0.0392 0.55966z" fill="#ff3"/>
    <rect transform="matrix(1.5272 0 0 .79607 -51.523 28.052)" x="94.091" y="99.791" width="1.6064" height="70.965" ry="1.6843" fill="#fff" filter="url(#filter1098)" style="paint-order:stroke markers fill"/>
    <rect x="92.517" y="100.41" width="1.4139" height="69.816" ry="1.657" fill="#fff" opacity=".919" style="paint-order:stroke markers fill"/>
    <path d="m87.139 138.89c0.97988-0.42092 1.387-0.71019 3.1832-0.88487s4.9813-0.23498 7.3978 0.24713c2.4165 0.48211 4.0648 1.5067 5.1339 1.2838 1.0691-0.22287 1.5591-1.6929 1.2919-3.5635-0.26724-1.8705-1.292-4.1428-3.1646-5.4147-1.8727-1.2719-4.497-1.5343-7.4384-1.4862-2.9414 0.0481-6.1508 0.4116-8.0442 1.7925-1.8934 1.3809-2.4698 3.7789-2.6578 5.5406-0.188 1.7616 0.01241 2.8862 0.88914 3.1724 0.87672 0.2862 2.4294-0.26626 3.4092-0.68718z" fill="#0165db" stroke="#3116f6" stroke-width=".26458px"/>
    <path d="m88.45 152.31c0.95226 0.16707 2.8565 0.50115 5.3344 0.32292 2.4779-0.17824 5.5292-0.86868 7.1901-0.76242 1.6609 0.10627 1.9246 0.98499 2.0304 1.9595s0.0501 2.0322-1.1357 2.8397c-1.1859 0.80748-3.5016 1.3641-6.3699 1.6371-2.8684 0.27294-6.2863 0.26181-8.6795-0.19951s-3.6985-1.3316-4.1619-2.4874c-0.46339-1.1558-0.05389-2.576 0.89817-3.1995 0.95206-0.62348 2.4471-0.45044 3.1944-0.36396 0.74728 0.0865 0.74728 0.0865 1.6995 0.25354z" fill="#2e65ff" stroke="#002cff" stroke-width=".26458px"/>
   </g>
   <path d="m103.46 126.82c-3.424-1.1558-6.8481-2.3116-10.302-2.2875-3.4539 0.0242-6.9376 1.2284-10.422 2.4329" fill="none" stroke="#003600" stroke-linecap="round" stroke-width="1.065"/>
   <path d="m99.402 108.9c-2.1032-0.58547-4.2065-1.171-6.3213-1.1547-2.1148 0.0163-4.2411 0.63452-6.3677 1.2528" fill="none" stroke="#003600" stroke-linecap="round" stroke-width=".59515"/>
  </g>
 </g>
</svg>
