<?xml version="1.0" encoding="UTF-8"?>
<!--
  CarRacerJS
  Copyright (C) Simon Raichl 2018
  MIT License
-->
<!-- Created with Inkscape (http://www.inkscape.org/) -->
<svg width="128" height="228" version="1.1" viewBox="0 0 33.867 60.325" xmlns="http://www.w3.org/2000/svg" xmlns:cc="http://creativecommons.org/ns#" xmlns:dc="http://purl.org/dc/elements/1.1/" xmlns:rdf="http://www.w3.org/1999/02/22-rdf-syntax-ns#" xmlns:xlink="http://www.w3.org/1999/xlink">
 <defs>
  <linearGradient id="linearGradient852-8">
   <stop stop-color="#0075d5" offset="0"/>
   <stop stop-color="#0075d5" stop-opacity="0" offset="1"/>
  </linearGradient>
  <linearGradient id="linearGradient854" x1="23.131" x2="30.432" y1="96.523" y2="96.523" gradientTransform="matrix(-3.2131 -.080976 .083745 -3.1069 94.901 338.93)" gradientUnits="userSpaceOnUse" xlink:href="#linearGradient852-8"/>
  <linearGradient id="linearGradient854-0" x1="23.131" x2="30.432" y1="96.523" y2="96.523" gradientTransform="matrix(-3.0011 -.00050647 -.00031748 1.7589 97.485 -155.86)" gradientUnits="userSpaceOnUse" xlink:href="#linearGradient852-8"/>
 </defs>
 <metadata>
  <rdf:RDF>
   <cc:Work rdf:about="">
    <dc:format>image/svg+xml</dc:format>
    <dc:type rdf:resource="http://purl.org/dc/dcmitype/StillImage"/>
    <dc:title/>
   </cc:Work>
  </rdf:RDF>
 </metadata>
 <g transform="translate(.0049105 -.0048885)">
  <rect transform="matrix(-1 -.00016876 .0001805 -1 0 0)" x="-32.105" y="-59.721" width="30.437" height="59.159" ry="8.4908" fill="#0060c3" stroke="#0029c5" stroke-linecap="round" stroke-linejoin="round" stroke-width="1.2106" style="paint-order:stroke markers fill"/>
  <path d="m27.774 41.855c-0.17772 2.6929-0.35537 5.385-0.82408 7.4527-0.46871 2.0677-1.2285 3.5121-2.0894 4.2702s-1.8227 0.83137-4.1741 0.90435c-2.3516 0.07295-5.8955 0.14197-8.2585-0.02627-2.363-0.16822-3.0567-0.53843-3.7144-1.2113-0.65773-0.67291-1.2397-1.6275-1.6824-3.598s-0.74573-4.9551-1.049-7.9415" fill="none" stroke="#0029c5" stroke-width=".83623px"/>
  <g stroke="#0000d5">
   <path d="m28.3 34.116c-0.01554 0.57534-0.04649 1.7252-0.68646 2.9087-0.63997 1.1835-1.8881 2.4006-3.9106 3.0285-2.0225 0.62796-4.8233 0.66758-7.4435 0.56594-2.6203-0.10176-5.0623-0.34443-6.7046-0.83259-1.6424-0.48819-2.4856-1.2216-3.077-1.966-0.59134-0.74442-0.9302-1.4992-1.0449-2.2732-0.11474-0.77405-0.00486-1.5667 0.40433-2.0739 0.40913-0.50724 1.1162-0.72762 4.833-0.84556 3.7169-0.1181 10.424-0.13219 13.867 0.03715 3.443 0.16965 3.6107 0.52224 3.7784 0.87533 0 0 3e-6 1.87e-4 -0.01554 0.57552z" fill="url(#linearGradient854)" stroke-width=".24881"/>
   <path d="m27.622 15.624c5.8e-5 -0.32571 1.7e-4 -0.9767-0.56726-1.6554-0.56743-0.67874-1.7017-1.3853-3.5385-1.7999-1.8368-0.41466-4.3799-0.538-6.9785-0.49161-2.5987 0.04649-5.2546 0.26235-6.7489 0.56282-1.4944 0.3006-1.8266 0.68421-2.1709 1.0465-0.34421 0.3623-0.69754 0.70038-0.9102 1.1191-0.21266 0.41876-0.28362 0.91719 0.011682 1.1667 0.29521 0.24962 0.95634 0.24973 4.3719 0.25714 3.4157 0.0068 9.5702 0.02338 12.784 0.0438 3.214 0.02229 3.4797 0.04907 3.6131 0.06277 0.13332 0.01245 0.13335 0.01245 0.13341-0.31192z" fill="url(#linearGradient854-0)" stroke-width=".24881"/>
   <g transform="matrix(-3.2142 -.00054243 .00056098 -3.1079 84.005 694.06)" fill="none" stroke-width=".26458px">
    <path d="m17.413 213.54c0 0.77144 0 1.5431 0.02688 2.2002s0.08063 1.1992 0.13443 1.7417"/>
    <path d="m24.478 213.49c0 0.77144 0 1.5432-0.04398 2.2002-0.04398 0.65706-0.13192 1.1991-0.21994 1.7417"/>
    <path d="m17.909 220.1c-0.16523 0.38553-0.33059 0.77138-0.49609 1.1576"/>
    <path d="m23.744 220.01c0.20468 0.44873 0.40942 0.89758 0.61421 1.3465"/>
   </g>
   <g stroke-linecap="round" stroke-linejoin="round">
    <path d="m24.082 2.7879a1.5304 1.1241 0.0088816 0 1 1.0874-1.3623 1.5304 1.1241 0.0088816 0 1 1.869 0.78084 1.5304 1.1241 0.0088816 0 1-1.0383 1.3828 1.5304 1.1241 0.0088816 0 1-1.8962-0.74454" fill="#df0404" stroke-width=".084077" style="paint-order:stroke markers fill"/>
    <path d="m6.9374 2.9093a1.5304 1.1241 0.0088816 0 1 1.0874-1.3623 1.5304 1.1241 0.0088816 0 1 1.869 0.78084 1.5304 1.1241 0.0088816 0 1-1.0383 1.3828 1.5304 1.1241 0.0088816 0 1-1.8962-0.74457" fill="#df0404" stroke-width=".084077" style="paint-order:stroke markers fill"/>
    <path d="m24.506 57.114a2.1688 1.1241 0.0094224 0 1 1.5408-1.3622 2.1688 1.1241 0.0094224 0 1 2.6486 0.78097 2.1688 1.1241 0.0094224 0 1-1.4713 1.3827 2.1688 1.1241 0.0094224 0 1-2.6872-0.74471" fill="#dfed04" stroke-width=".10009" style="paint-order:stroke markers fill"/>
    <path d="m4.3821 56.8a2.1688 1.1241 0.0094224 0 1 1.5408-1.3622 2.1688 1.1241 0.0094224 0 1 2.6486 0.78097 2.1688 1.1241 0.0094224 0 1-1.4713 1.3827 2.1688 1.1241 0.0094224 0 1-2.6872-0.74471" fill="#dfed04" stroke-width=".10009" style="paint-order:stroke markers fill"/>
   </g>
  </g>
 </g>
</svg>
