<?xml version="1.0" encoding="UTF-8"?>
<!--
  CarRacerJS
  Copyright (C) Simon Raichl 2019
  MIT License
-->
<!-- Created with Inkscape (http://www.inkscape.org/) -->
<svg width="128" height="128" version="1.1" viewBox="0 0 33.866 33.866" xmlns="http://www.w3.org/2000/svg" xmlns:cc="http://creativecommons.org/ns#" xmlns:dc="http://purl.org/dc/elements/1.1/" xmlns:rdf="http://www.w3.org/1999/02/22-rdf-syntax-ns#">
 <metadata>
  <rdf:RDF>
   <cc:Work rdf:about="">
    <dc:format>image/svg+xml</dc:format>
    <dc:type rdf:resource="http://purl.org/dc/dcmitype/StillImage"/>
    <dc:title/>
   </cc:Work>
  </rdf:RDF>
 </metadata>
 <g transform="translate(0 -263.13)">
  <path transform="translate(-.74532 -263.87)" d="m20.225 551.03-0.12545 9.7272-3.8746-8.9884-1.9614 6.9219 0.31041-7.98-7.3088 7.0508 2.8591-6.7208-6.4042 2.7578 5.8239-7.425-7.3112 1.0016 6.1813-2.3019-8.1088-3.4205 8.879-0.0657-5.3461-6.0031 5.931 3.4755-3.2878-8.6175 6.6171 5.7078-0.91623-8.6574 4.8813 9.0178-0.12987-8.7916 3.0154 8.1467 2.9945-7.3404-1.9305 8.3298 6.5944-5.111-4.0138 6.7831 9.4152-0.30834-8.5665 4.2361 9.3236 0.21647-8.7857 2.9739 8.3328 3.2408-8.4759-0.41367 5.3157 5.6671-7.168-3.5772 1.5717 7.4313z" fill="#ea6d16" style="paint-order:stroke fill markers"/>
  <path transform="translate(7.806 -14.386)" d="m10.731 298.53 0.34135 4.5707-1.9155-3.953-2.3529 3.7503 1.1538-4.4236-3.0036 3.3011 0.55375-4.6453-3.8849 2.556 3.5654-3.0534-4.1023-0.31356 4.2021-2.0487-4.9235-0.79325 5.0864-0.39657-3.3544-3.0563 4.1248 1.2691-3.071-4.1582 3.7563 3.0772-0.26586-4.5518 2.1452 3.6685 0.76293-4.1187 1.1512 5.2248 1.8376-3.9258-1.0696 4.1269 3.642-2.3064-1.6904 3.3601 3.5003-1.3385-2.9453 3.1192 3.5613 0.89261-4.1559 0.80948 4.7051 2.2324-4.2499-0.90413 1.7855 3.8588-2.9072-2.2893 0.40908 4.1271z" fill="#ea4d16" style="paint-order:stroke fill markers"/>
 </g>
</svg>
