<?xml version="1.0" encoding="UTF-8"?>
<!--
  CarRacerJS
  Copyright (C) Simon Raichl 2018
  MIT License
-->
<!-- Created with Inkscape (http://www.inkscape.org/) -->
<svg width="1280" height="720" version="1.1" viewBox="0 0 338.67 190.5" xmlns="http://www.w3.org/2000/svg" xmlns:cc="http://creativecommons.org/ns#" xmlns:dc="http://purl.org/dc/elements/1.1/" xmlns:rdf="http://www.w3.org/1999/02/22-rdf-syntax-ns#" xmlns:xlink="http://www.w3.org/1999/xlink">
 <defs>
  <linearGradient id="linearGradient821-2">
   <stop stop-color="#00b906" offset="0"/>
   <stop stop-color="#00b906" stop-opacity="0" offset="1"/>
  </linearGradient>
  <linearGradient id="linearGradient835-5" x2="528.57" y1="201.37" y2="201.69" gradientTransform="matrix(.19882 0 0 1 -2.3547 1.4401)" gradientUnits="userSpaceOnUse" xlink:href="#linearGradient821-2"/>
  <clipPath id="clipPath958">
   <rect x="-2.3547" y="108.19" width="338.2" height="188.49" fill="#fff" style="paint-order:stroke markers fill"/>
  </clipPath>
  <clipPath id="clipPath962">
   <rect x="-2.3547" y="107.18" width="340.9" height="190.62" fill="#fff" style="paint-order:stroke markers fill"/>
  </clipPath>
 </defs>
 <metadata>
  <rdf:RDF>
   <cc:Work rdf:about="">
    <dc:format>image/svg+xml</dc:format>
    <dc:type rdf:resource="http://purl.org/dc/dcmitype/StillImage"/>
    <dc:title/>
   </cc:Work>
  </rdf:RDF>
 </metadata>
 <g>
  <g transform="matrix(.99348 0 0 .99938 2.3394 -107.12)" clip-path="url(#clipPath962)">
   <rect x="65.43" y="107.18" width="205.8" height="190.83" fill="#282828" style="paint-order:stroke markers fill"/>
   <g>
    <rect x="-2.3547" y="106.76" width="67.785" height="191.26" fill="#feb906" style="paint-order:stroke markers fill"/>
    <rect x="-2.3547" y="107.18" width="67.785" height="191.26" fill="url(#linearGradient835-5)" style="paint-order:stroke markers fill"/>
   </g>
   <g transform="rotate(180.14 168.21 202.47)">
    <rect x="-2.3547" y="106.76" width="67.785" height="191.26" fill="#feb906" style="paint-order:stroke markers fill"/>
    <rect x="-2.3547" y="107.18" width="67.785" height="191.26" fill="url(#linearGradient835-5)" style="paint-order:stroke markers fill"/>
   </g>
  </g>
  <g transform="matrix(1.0014 0 0 1.0107 2.3581 -109.34)" clip-path="url(#clipPath958)" fill="#fff">
   <rect x="69.253" y="107.58" width="4.2425" height="189.43" style="paint-order:stroke markers fill"/>
   <rect x="259.52" y="107.58" width="4.2425" height="189.43" style="paint-order:stroke markers fill"/>
   <rect x="167.99" y="107.58" width="4.2425" height="189.43" style="paint-order:stroke markers fill"/>
   <rect x="116.9" y="219.17" width="4.2425" height="67.187" style="paint-order:stroke markers fill"/>
   <rect x="116.9" y="118.86" width="4.2425" height="67.187" style="paint-order:stroke markers fill"/>
   <rect x="214.76" y="219.17" width="4.2425" height="67.187" style="paint-order:stroke markers fill"/>
   <rect x="214.76" y="118.86" width="4.2425" height="67.187" style="paint-order:stroke markers fill"/>
  </g>
 </g>
</svg>
